<svg width="484" height="240" viewBox="0 0 484 240" fill="none" xmlns="http://www.w3.org/2000/svg">
<rect y="53" width="94" height="7" fill="#1E1E1E"/>
<rect y="216" width="173" height="7" fill="#1E1E1E"/>
<rect x="193" y="216" width="192" height="7" fill="#1E1E1E"/>
<rect x="7" y="53" width="170" height="6.99999" transform="rotate(90 7 53)" fill="#1E1E1E"/>
<rect x="385" y="53" width="57" height="7" transform="rotate(90 385 53)" fill="#1E1E1E"/>
<rect x="385" y="158" width="65" height="7" transform="rotate(90 385 158)" fill="#1E1E1E"/>
<rect x="194" y="53" width="184" height="7" fill="#1E1E1E"/>
<rect x="94" y="53" width="100" height="7" fill="#1E1E1E"/>
<path d="M104 57C104 62.5229 99.5228 67 94 67C88.4772 67 84 62.5229 84 57C84 51.4772 88.4772 47 94 47C99.5228 47 104 51.4772 104 57Z" fill="#1E1E1E"/>
<circle cx="194" cy="57" r="10" fill="#1E1E1E"/>
<rect x="397.954" y="115" width="5.72191" height="50.8467" transform="rotate(45 397.954 115)" fill="#F2B33A"/>
<rect x="402" y="150.954" width="5.72191" height="50.8467" transform="rotate(135 402 150.954)" fill="#F2B33A"/>
<path d="M84.2 123.7C82.84 121.207 80.97 119.308 78.59 118.005C76.21 116.702 73.4333 116.05 70.26 116.05C66.7467 116.05 63.63 116.843 60.91 118.43C58.19 120.017 56.065 122.283 54.535 125.23C53.005 128.177 52.24 131.577 52.24 135.43C52.24 139.397 53.005 142.853 54.535 145.8C56.1217 148.747 58.3033 151.013 61.08 152.6C63.8567 154.187 67.0867 154.98 70.77 154.98C75.3033 154.98 79.015 153.79 81.905 151.41C84.795 148.973 86.6933 145.602 87.6 141.295H67.2V132.2H99.33V142.57C98.5367 146.707 96.8367 150.532 94.23 154.045C91.6233 157.558 88.2517 160.392 84.115 162.545C80.035 164.642 75.445 165.69 70.345 165.69C64.6217 165.69 59.4367 164.415 54.79 161.865C50.2 159.258 46.5733 155.66 43.91 151.07C41.3033 146.48 40 141.267 40 135.43C40 129.593 41.3033 124.38 43.91 119.79C46.5733 115.143 50.2 111.545 54.79 108.995C59.4367 106.388 64.5933 105.085 70.26 105.085C76.9467 105.085 82.755 106.728 87.685 110.015C92.615 113.245 96.015 117.807 97.885 123.7H84.2Z" fill="#1E1E1E"/>
<path d="M141.284 155.745H160.834V165.18H129.384V105.85H141.284V155.745Z" fill="#1E1E1E"/>
<path d="M226.028 153.875H202.398L198.488 165.18H185.993L207.328 105.765H221.183L242.518 165.18H229.938L226.028 153.875ZM222.798 144.355L214.213 119.535L205.628 144.355H222.798Z" fill="#1E1E1E"/>
<path d="M292.483 105.85C298.716 105.85 304.184 107.068 308.888 109.505C313.648 111.942 317.303 115.427 319.853 119.96C322.459 124.437 323.763 129.65 323.763 135.6C323.763 141.55 322.459 146.763 319.853 151.24C317.303 155.66 313.648 159.088 308.888 161.525C304.184 163.962 298.716 165.18 292.483 165.18H271.743V105.85H292.483ZM292.058 155.065C298.291 155.065 303.108 153.365 306.508 149.965C309.908 146.565 311.608 141.777 311.608 135.6C311.608 129.423 309.908 124.607 306.508 121.15C303.108 117.637 298.291 115.88 292.058 115.88H283.643V155.065H292.058Z" fill="#1E1E1E"/>
<path d="M462.394 165.775C458.257 165.775 454.517 165.067 451.174 163.65C447.887 162.233 445.28 160.193 443.354 157.53C441.427 154.867 440.435 151.722 440.379 148.095H453.129C453.299 150.532 454.149 152.458 455.679 153.875C457.265 155.292 459.419 156 462.139 156C464.915 156 467.097 155.348 468.684 154.045C470.27 152.685 471.064 150.928 471.064 148.775C471.064 147.018 470.525 145.573 469.449 144.44C468.372 143.307 467.012 142.428 465.369 141.805C463.782 141.125 461.572 140.388 458.739 139.595C454.885 138.462 451.74 137.357 449.304 136.28C446.924 135.147 444.855 133.475 443.099 131.265C441.399 128.998 440.549 125.995 440.549 122.255C440.549 118.742 441.427 115.682 443.184 113.075C444.94 110.468 447.405 108.485 450.579 107.125C453.752 105.708 457.379 105 461.459 105C467.579 105 472.537 106.502 476.334 109.505C480.187 112.452 482.312 116.588 482.709 121.915H469.619C469.505 119.875 468.627 118.203 466.984 116.9C465.397 115.54 463.272 114.86 460.609 114.86C458.285 114.86 456.415 115.455 454.999 116.645C453.639 117.835 452.959 119.563 452.959 121.83C452.959 123.417 453.469 124.748 454.489 125.825C455.565 126.845 456.869 127.695 458.399 128.375C459.985 128.998 462.195 129.735 465.029 130.585C468.882 131.718 472.027 132.852 474.464 133.985C476.9 135.118 478.997 136.818 480.754 139.085C482.51 141.352 483.389 144.327 483.389 148.01C483.389 151.183 482.567 154.13 480.924 156.85C479.28 159.57 476.872 161.752 473.699 163.395C470.525 164.982 466.757 165.775 462.394 165.775Z" fill="#1E1E1E"/>
<rect x="186" y="206" width="7" height="27" fill="#1E1E1E"/>
<rect x="173" y="200" width="7" height="40" fill="#1E1E1E"/>
<circle cx="382" cy="135" r="26.5" stroke="#F2B33A" stroke-width="7"/>
</svg>
